<svg xmlns="http://www.w3.org/2000/svg" xmlns:xlink="http://www.w3.org/1999/xlink" viewBox="0 0 280 250" preserveAspectRatio="xMidYMid" style="display: block; shape-rendering: auto; background: rgb(255, 255, 255);" width="280" height="250"><style type="text/css">
  .ld-text text {
    text-anchor: middle;
    dominant-baseline: middle;
    font-size: 80px;
    opacity: 0;
    user-select: none;
    pointer-events: none;
  }
</style>
<g style="transform-origin:140px 125px;transform:scale(1)" class="ld-text">
<g transform="translate(140,125)">
  <g transform="scale(1.0000) translate(0,0)"><g class="path" style="opacity: 1; transform-origin: -64.92px 16.9px; transform: matrix3d(1, 0, 0, 0, 0, 1, 0, 0, 0, 0, 1, 0, 0, 0, 0, 1); animation: 1s linear -0.495s infinite normal forwards running animate-uet9mhnnypc; transform-box: view-box;"><path d="M21.88 31.77L21.88 56.30L6.37 56.30L6.37 0.05L46.76 0.05L46.76 7.24L21.88 7.24L21.88 24.62L41.09 24.62L41.09 31.77L21.88 31.77" style="fill: rgb(5, 15, 44);" transform="translate(-91.485,-28.150)"></path></g><g class="path" style="opacity: 1; transform-origin: -28.89px 16.9px; transform: matrix3d(1, 0, 0, 0, 0, 1, 0, 0, 0, 0, 1, 0, 0, 0, 0, 1); animation: 1s linear -0.33s infinite normal forwards running animate-uet9mhnnypc; transform-box: view-box;"><path d="M70.35 0.05L70.35 56.30L54.84 56.30L54.84 0.05L70.35 0.05" style="fill: rgb(5, 15, 44);" transform="translate(-91.485,-28.150)"></path></g><g class="path" style="opacity: 1; transform-origin: 11.8px 16.9px; transform: matrix3d(1, 0, 0, 0, 0, 1, 0, 0, 0, 0, 1, 0, 0, 0, 0, 1); animation: 1s linear -0.165s infinite normal forwards running animate-uet9mhnnypc; transform-box: view-box;"><path d="M98.59 31.77L98.59 56.30L83.09 56.30L83.09 0.05L123.48 0.05L123.48 7.24L98.59 7.24L98.59 24.62L117.81 24.62L117.81 31.77L98.59 31.77" style="fill: rgb(5, 15, 44);" transform="translate(-91.485,-28.150)"></path></g><g class="path" style="opacity: 1; transform-origin: 66.95px 17.54px; transform: matrix3d(1, 0, 0, 0, 0, 1, 0, 0, 0, 0, 1, 0, 0, 0, 0, 1); animation: 1s linear 0s infinite normal forwards running animate-uet9mhnnypc; transform-box: view-box;"><path d="M189.34 28.10L189.34 28.10Q189.34 34.89 186.99 40.34Q184.65 45.79 180.51 49.58Q176.37 53.37 170.70 55.40Q165.04 57.43 158.44 57.43L158.44 57.43Q151.84 57.43 146.17 55.40Q140.51 53.37 136.37 49.58Q132.23 45.79 129.88 40.34Q127.54 34.89 127.54 28.10L127.54 28.10Q127.54 21.18 129.86 15.73Q132.19 10.28 136.31 6.51Q140.43 2.75 146.09 0.73Q151.76-1.28 158.44-1.28L158.44-1.28Q165.12-1.28 170.78 0.73Q176.45 2.75 180.57 6.51Q184.69 10.28 187.01 15.73Q189.34 21.18 189.34 28.10 zM173.55 28.10L173.55 28.10Q173.55 25.52 173.32 22.82Q173.09 20.13 172.46 17.59Q171.84 15.05 170.76 12.82Q169.69 10.60 168.01 8.94Q166.33 7.28 163.96 6.32Q161.60 5.36 158.44 5.36L158.44 5.36Q155.23 5.36 152.85 6.32Q150.47 7.28 148.79 8.92Q147.11 10.56 146.05 12.78Q145 15.01 144.39 17.53Q143.79 20.05 143.55 22.76Q143.32 25.48 143.32 28.10L143.32 28.10Q143.32 30.67 143.55 33.37Q143.79 36.07 144.41 38.59Q145.04 41.10 146.11 43.33Q147.19 45.56 148.87 47.22Q150.55 48.88 152.91 49.85Q155.27 50.83 158.44 50.83L158.44 50.83Q161.52 50.83 163.83 49.84Q166.13 48.84 167.81 47.14Q169.49 45.44 170.61 43.19Q171.72 40.95 172.36 38.43Q173.01 35.91 173.28 33.25Q173.55 30.60 173.55 28.10" style="fill: rgb(5, 15, 44);" transform="translate(-91.485,-28.150)"></path></g></g><text dy="0.35em" fill="#050f2c" font-family="Aclonica" font-size="80">FIFO</text>
</g>
</g><style type="text/css">@keyframes animate-uet9mhnnypc { 0.00% {transform: translate(0.00px,0.00px) rotate(0.00deg) scale(1.00, 1.00) skew(0deg, 0.00deg) ;opacity: 1.00;}2.00% {animation-timing-function: cubic-bezier(0.20,0.39,0.50,0.97);transform: translate(0.00px,-1.08px) rotate(0.00deg) ;}36.00% {animation-timing-function: cubic-bezier(0.50,0.03,0.80,0.61);transform: translate(0.00px,-10.00px) rotate(0.00deg) ;}72.00% {transform: translate(0.00px,0.00px) rotate(0.00deg) ;}74.00% {animation-timing-function: cubic-bezier(0.23,0.43,0.48,0.91);transform: translate(0.00px,0.00px) rotate(0.00deg) scale(1.00, 0.95) ;}86.00% {animation-timing-function: cubic-bezier(0.52,0.09,0.77,0.57);transform: translate(0.00px,0.00px) rotate(0.00deg) scale(1.00, 0.80) ;}100.00% {animation-timing-function: cubic-bezier(0.52,0.09,0.77,0.57);transform: translate(0.00px,0.00px) rotate(0.00deg) scale(1.00, 1.00) ;} }</style><!-- [ldio] generated by https://loading.io --></svg>